<svg width="11" height="11" viewBox="0 0 11 11" fill="none" xmlns="http://www.w3.org/2000/svg">
<path d="M8.96362 6.21429H8.19309C7.98035 6.21429 7.80783 6.37421 7.80783 6.57143C7.80783 6.76864 7.98035 6.92857 8.19309 6.92857H8.96362C9.17636 6.92857 9.34888 6.76864 9.34888 6.57143C9.34888 6.37421 9.17636 6.21429 8.96362 6.21429ZM1.25833 0.5C0.620003 0.5 0.102539 0.979693 0.102539 1.57143V8.71429C0.102539 9.7005 0.964984 10.5 2.02886 10.5H9.73415C10.3725 10.5 10.8899 10.0203 10.8899 9.42857V3C10.8899 2.53349 10.5683 2.13662 10.1194 1.98954V1.57143C10.1194 0.979693 9.60192 0.5 8.96362 0.5H1.25833ZM0.873068 8.71429V2.58189C0.993571 2.62137 1.12324 2.64286 1.25833 2.64286H9.73415C9.94689 2.64286 10.1194 2.80276 10.1194 3V9.42857C10.1194 9.62579 9.94689 9.78571 9.73415 9.78571H2.02886C1.39053 9.78571 0.873068 9.306 0.873068 8.71429ZM1.25833 1.21429H8.96362C9.17636 1.21429 9.34888 1.37419 9.34888 1.57143V1.92857H1.25833C1.04556 1.92857 0.873068 1.76867 0.873068 1.57143C0.873068 1.37419 1.04556 1.21429 1.25833 1.21429Z" fill="white"/>
</svg>
