<svg width="23" height="23" viewBox="0 0 23 23" fill="none" xmlns="http://www.w3.org/2000/svg">
<g filter="url(#filter0_b_33_11)">
<path d="M23 11.5C23 17.8513 17.8513 23 11.5 23C5.14873 23 0 17.8513 0 11.5C0 5.14873 5.14873 0 11.5 0C17.8513 0 23 5.14873 23 11.5Z" fill="url(#paint0_radial_33_11)" fill-opacity="0.2"/>
<path d="M22.5 11.5C22.5 17.5751 17.5751 22.5 11.5 22.5C5.42487 22.5 0.5 17.5751 0.5 11.5C0.5 5.42487 5.42487 0.5 11.5 0.5C17.5751 0.5 22.5 5.42487 22.5 11.5Z" stroke="url(#paint1_radial_33_11)"/>
<path d="M22.5 11.5C22.5 17.5751 17.5751 22.5 11.5 22.5C5.42487 22.5 0.5 17.5751 0.5 11.5C0.5 5.42487 5.42487 0.5 11.5 0.5C17.5751 0.5 22.5 5.42487 22.5 11.5Z" stroke="url(#paint2_radial_33_11)"/>
</g>
<path d="M16.143 6.33331L12.1191 9.23131L12.8633 7.52131L16.143 6.33331Z" fill="#E2761B" stroke="#E2761B" stroke-width="0.172779" stroke-linecap="round" stroke-linejoin="round"/>
<path d="M6.85352 6.33331L10.8452 9.25898L10.1374 7.52165L6.85352 6.33331ZM14.6948 13.051L13.6233 14.643L15.9162 15.255L16.5755 13.0863L14.6952 13.051H14.6948ZM6.42865 13.0863L7.08384 15.255L9.37665 14.643L8.30518 13.051L6.42865 13.0863V13.0863Z" fill="#E4761B" stroke="#E4761B" stroke-width="0.172779" stroke-linecap="round" stroke-linejoin="round"/>
<path d="M9.24774 10.3607L8.60905 11.2977L10.8861 11.396L10.8053 9.02334L9.24809 10.3607H9.24774ZM13.7491 10.361L12.172 8.99634L12.1194 11.3963L14.392 11.2983L13.7491 10.361ZM9.37665 14.6433L10.7437 13.996L9.56262 13.102L9.37699 14.643L9.37665 14.6433ZM12.2525 13.996L13.6233 14.643L13.4332 13.102L12.2525 13.996V13.996Z" fill="#E4761B" stroke="#E4761B" stroke-width="0.172779" stroke-linecap="round" stroke-linejoin="round"/>
<path d="M13.6227 14.6427L12.2514 13.996L12.3608 14.8627L12.3487 15.227L13.6227 14.6427ZM9.37597 14.6427L10.6499 15.227L10.642 14.8623L10.7431 13.9957L9.37563 14.6433L9.37597 14.6427Z" fill="#D7C1B3" stroke="#D7C1B3" stroke-width="0.172779" stroke-linecap="round" stroke-linejoin="round"/>
<path d="M10.6709 12.53L9.53064 12.2044L10.3354 11.8474L10.6709 12.5297V12.53ZM12.325 12.53L12.6608 11.8474L13.4697 12.204L12.325 12.5297V12.53Z" fill="#233447" stroke="#233447" stroke-width="0.172779" stroke-linecap="round" stroke-linejoin="round"/>
<path d="M9.37664 14.643L9.57051 13.0506L8.30482 13.086L9.37664 14.6426V14.643ZM13.4288 13.0506L13.623 14.643L14.6948 13.0863L13.4288 13.0506ZM14.3916 11.298L12.1187 11.396L12.3291 12.5293L12.6646 11.847L13.4735 12.2036L14.3913 11.298H14.3916ZM9.53029 12.2036L10.3391 11.847L10.6709 12.5293L10.885 11.396L8.60836 11.298L9.53029 12.2036V12.2036Z" fill="#CD6116" stroke="#CD6116" stroke-width="0.172779" stroke-linecap="round" stroke-linejoin="round"/>
<path d="M8.60802 11.298L9.56261 13.1016L9.5303 12.2036L8.60802 11.298V11.298ZM13.4731 12.2036L13.4329 13.1016L14.3913 11.298L13.4735 12.2036H13.4731ZM10.885 11.396L10.6709 12.5293L10.9376 13.8666L10.9985 12.1056L10.885 11.396V11.396ZM12.118 11.396L12.0091 12.102L12.0572 13.8666L12.3284 12.5293L12.118 11.396V11.396Z" fill="#E4751F" stroke="#E4751F" stroke-width="0.172779" stroke-linecap="round" stroke-linejoin="round"/>
<path d="M12.3295 12.5297L12.0586 13.867L12.2525 13.9964L13.4336 13.102L13.4738 12.204L12.3291 12.5297H12.3295ZM9.5303 12.204L9.56296 13.1024L10.7437 13.9964L10.938 13.867L10.6709 12.5297L9.53065 12.204H9.5303Z" fill="#F6851B" stroke="#F6851B" stroke-width="0.172779" stroke-linecap="round" stroke-linejoin="round"/>
<path d="M12.3491 15.2277L12.3611 14.8627L12.26 14.7767H10.7355L10.6423 14.863L10.6502 15.2277L9.37665 14.6434L9.82146 14.996L10.7231 15.604H12.2721L13.1782 14.996L13.623 14.6434L12.3491 15.2277V15.2277Z" fill="#C0AD9E" stroke="#C0AD9E" stroke-width="0.172779" stroke-linecap="round" stroke-linejoin="round"/>
<path d="M12.2528 13.9963L12.0586 13.867H10.9383L10.7441 13.9963L10.643 14.863L10.7358 14.7767H12.2607L12.3618 14.863L12.2528 13.9963Z" fill="#161616" stroke="#161616" stroke-width="0.172779" stroke-linecap="round" stroke-linejoin="round"/>
<path d="M16.3125 9.41965L16.6562 7.81965L16.1427 6.33331L12.2521 9.13331L13.7485 10.3606L15.8635 10.9606L16.3328 10.4313L16.1306 10.2903L16.4538 10.0036L16.2032 9.81565L16.527 9.57665L16.3125 9.41965V9.41965ZM6.34373 7.81965L6.68748 9.41965L6.4692 9.57631L6.79233 9.81565L6.54586 10.004L6.86933 10.2903L6.6672 10.4313L7.1323 10.961L9.24739 10.361L10.7437 9.13331L6.85317 6.33331L6.34373 7.81965Z" fill="#763D16" stroke="#763D16" stroke-width="0.172779" stroke-linecap="round" stroke-linejoin="round"/>
<path d="M15.8639 10.961L13.7485 10.361L14.3916 11.2983L13.4332 13.1023L14.6948 13.0867H16.5755L15.8639 10.961V10.961ZM9.2474 10.361L7.13231 10.961L6.42865 13.0867H8.30518L9.56296 13.1023L8.60837 11.2983L9.2474 10.361V10.361ZM12.1187 11.3963L12.2528 9.13333L12.8671 7.52167H10.1377L10.7437 9.13333L10.8854 11.3963L10.9335 12.1097L10.938 13.8667H12.0582L12.0662 12.11L12.1187 11.3963Z" fill="#F6851B" stroke="#F6851B" stroke-width="0.172779" stroke-linecap="round" stroke-linejoin="round"/>
<defs>
<filter id="filter0_b_33_11" x="-80" y="-80" width="183" height="183" filterUnits="userSpaceOnUse" color-interpolation-filters="sRGB">
<feFlood flood-opacity="0" result="BackgroundImageFix"/>
<feGaussianBlur in="BackgroundImage" stdDeviation="40"/>
<feComposite in2="SourceAlpha" operator="in" result="effect1_backgroundBlur_33_11"/>
<feBlend mode="normal" in="SourceGraphic" in2="effect1_backgroundBlur_33_11" result="shape"/>
</filter>
<radialGradient id="paint0_radial_33_11" cx="0" cy="0" r="1" gradientUnits="userSpaceOnUse" gradientTransform="translate(3.52347 4.83948) rotate(44.7841) scale(29.2152 31.6532)">
<stop stop-color="#A5EFFF"/>
<stop offset="0.770833" stop-color="#6EBFF4" stop-opacity="0.223958"/>
<stop offset="1" stop-color="#4690D5" stop-opacity="0"/>
</radialGradient>
<radialGradient id="paint1_radial_33_11" cx="0" cy="0" r="1" gradientUnits="userSpaceOnUse" gradientTransform="translate(-3.16362 -2.84382) rotate(42.201) scale(24.9557 49.1704)">
<stop stop-color="#98F9FF"/>
<stop offset="1" stop-color="white" stop-opacity="0"/>
</radialGradient>
<radialGradient id="paint2_radial_33_11" cx="0" cy="0" r="1" gradientUnits="userSpaceOnUse" gradientTransform="translate(24.9042 25.8937) rotate(-133.066) scale(25.4046 46.3495)">
<stop stop-color="#EABFFF"/>
<stop offset="1" stop-color="#8726B7" stop-opacity="0"/>
</radialGradient>
</defs>
</svg>
